<svg id="SvgjsSvg1012" width="288" height="288" xmlns="http://www.w3.org/2000/svg" version="1.1" xmlns:xlink="http://www.w3.org/1999/xlink" xmlns:svgjs="http://svgjs.com/svgjs"><defs id="SvgjsDefs1013"></defs><g id="SvgjsG1014"><svg xmlns="http://www.w3.org/2000/svg" enable-background="new 0 0 32 32" viewBox="0 0 32 32" width="288" height="288"><path d="M21.688,18.102c-2.241-0.295-4.274,0.038-6.148,1.01c-1.639,0.851-3.468,1.078-5.53,0.703C9.903,23.281,12.694,26,16,26c3.309,0,6-2.691,6-6C22,19.336,21.887,18.7,21.688,18.102z M14,24c-0.552,0-1-0.448-1-1c0-0.552,0.448-1,1-1s1,0.448,1,1C15,23.552,14.552,24,14,24z M19,22c-0.552,0-1-0.448-1-1c0-0.552,0.448-1,1-1s1,0.448,1,1C20,21.552,19.552,22,19,22z" fill="#00a9ff" class="svgShape color000000-0 selectable"></path><path d="M19,10.465V4h1c0.552,0,1-0.448,1-1s-0.448-1-1-1h-8c-0.552,0-1,0.448-1,1s0.448,1,1,1h1v6.465C8.84,11.761,6,15.574,6,20c0,5.514,4.486,10,10,10s10-4.486,10-10C26,15.574,23.16,11.761,19,10.465z M16,28c-4.411,0-8-3.589-8-8c0-3.757,2.559-6.962,6.222-7.794C14.677,12.102,15,11.697,15,11.23V4h2v7.23c0,0.467,0.323,0.872,0.778,0.975C21.441,13.038,24,16.243,24,20C24,24.411,20.411,28,16,28z" fill="#00a9ff" class="svgShape color000000-1 selectable"></path></svg></g></svg>